<svg xmlns="http://www.w3.org/2000/svg" xmlns:xlink="http://www.w3.org/1999/xlink" id="processonSvg1000" viewBox="63.0 122.0 788.0 844.0113636363636" width="788.0" height="844.0113636363636"><defs id="ProcessOnDefs1001"><marker id="ProcessOnMarker1096" markerUnits="userSpaceOnUse" orient="auto" markerWidth="16.23606797749979" markerHeight="10.550836550532098" viewBox="-1.0 -1.3763819204711736 16.23606797749979 10.550836550532098" refX="-1.0" refY="3.8990363547948754"><path id="ProcessOnPath1097" d="M12.0 3.8990363547948754L0.0 7.798072709589751V0.0Z" stroke="#323232" stroke-width="2.0" fill="#323232" transform="matrix(1.0,0.0,0.0,1.0,0.0,0.0)"/></marker><marker id="ProcessOnMarker1100" markerUnits="userSpaceOnUse" orient="auto" markerWidth="16.23606797749979" markerHeight="10.550836550532098" viewBox="-1.0 -1.3763819204711736 16.23606797749979 10.550836550532098" refX="-1.0" refY="3.8990363547948754"><path id="ProcessOnPath1101" d="M12.0 3.8990363547948754L0.0 7.798072709589751V0.0Z" stroke="#323232" stroke-width="2.0" fill="#323232" transform="matrix(1.0,0.0,0.0,1.0,0.0,0.0)"/></marker><marker id="ProcessOnMarker1134" markerUnits="userSpaceOnUse" orient="auto" markerWidth="16.23606797749979" markerHeight="10.550836550532098" viewBox="-1.0 -1.3763819204711736 16.23606797749979 10.550836550532098" refX="-1.0" refY="3.8990363547948754"><path id="ProcessOnPath1135" d="M12.0 3.8990363547948754L0.0 7.798072709589751V0.0Z" stroke="#323232" stroke-width="2.0" fill="#323232" transform="matrix(1.0,0.0,0.0,1.0,0.0,0.0)"/></marker></defs><g id="ProcessOnG1002"><path id="ProcessOnPath1003" d="M63.0 122.0H851.0V966.0113636363636H63.0V122.0Z" fill="none"/><g id="ProcessOnG1004"><g id="ProcessOnG1005" transform="matrix(1.0,0.0,0.0,1.0,414.0,142.0)" opacity="1.0"><path id="ProcessOnPath1006" d="M0.0 0.0L387.0 0.0L387.0 59.67045454545457L0.0 59.67045454545457Z" stroke="#323232" stroke-width="2.0" stroke-dasharray="none" opacity="1.0" fill="#ffffff"/><g id="ProcessOnG1007" transform="matrix(1.0,0.0,0.0,1.0,10.0,19.835227272727284)"><text id="ProcessOnText1008" fill="#000000" font-size="16" x="182.5" y="16.4" font-family="微软雅黑" font-weight="normal" font-style="normal" text-decoration="none" family="微软雅黑" text-anchor="middle" size="16">0</text></g></g><g id="ProcessOnG1009" transform="matrix(1.0,0.0,0.0,1.0,83.0,142.0)" opacity="1.0"><path id="ProcessOnPath1010" d="M0.0 0.0L178.0 0.0L178.0 178.01136363636357L0.0 178.01136363636357Z" stroke="#323232" stroke-width="2.0" stroke-dasharray="none" opacity="1.0" fill="#e5e5e5"/><g id="ProcessOnG1011" transform="matrix(1.0,0.0,0.0,1.0,10.0,77.75568181818178)"><text id="ProcessOnText1012" fill="#000000" font-size="18" x="78.0" y="18.45" font-family="微软雅黑" font-weight="normal" font-style="normal" text-decoration="none" family="微软雅黑" text-anchor="middle" size="18">genesis_block</text></g></g><g id="ProcessOnG1013" transform="matrix(1.0,0.0,0.0,1.0,261.0,142.00000000000003)" opacity="1.0"><path id="ProcessOnPath1014" d="M0.0 0.0L153.0 0.0L153.0 59.670454545454504L0.0 59.670454545454504Z" stroke="#323232" stroke-width="2.0" stroke-dasharray="none" opacity="1.0" fill="#ffffff"/><g id="ProcessOnG1015" transform="matrix(1.0,0.0,0.0,1.0,10.0,18.585227272727252)"><text id="ProcessOnText1016" fill="#000000" font-size="18" x="65.5" y="18.45" font-family="微软雅黑" font-weight="normal" font-style="normal" text-decoration="none" family="微软雅黑" text-anchor="middle" size="18">previous_hash</text></g></g><g id="ProcessOnG1017" transform="matrix(1.0,0.0,0.0,1.0,261.0,200.67045454545453)" opacity="1.0"><path id="ProcessOnPath1018" d="M0.0 0.0L153.0 0.0L153.0 59.670454545454504L0.0 59.670454545454504Z" stroke="#323232" stroke-width="2.0" stroke-dasharray="none" opacity="1.0" fill="#ffffff"/><g id="ProcessOnG1019" transform="matrix(1.0,0.0,0.0,1.0,10.0,18.585227272727252)"><text id="ProcessOnText1020" fill="#000000" font-size="18" x="65.5" y="18.45" font-family="微软雅黑" font-weight="normal" font-style="normal" text-decoration="none" family="微软雅黑" text-anchor="middle" size="18">data</text></g></g><g id="ProcessOnG1021" transform="matrix(1.0,0.0,0.0,1.0,261.0,260.340909090909)" opacity="1.0"><path id="ProcessOnPath1022" d="M0.0 0.0L153.0 0.0L153.0 59.670454545454504L0.0 59.670454545454504Z" stroke="#323232" stroke-width="2.0" stroke-dasharray="none" opacity="1.0" fill="#ffffff"/><g id="ProcessOnG1023" transform="matrix(1.0,0.0,0.0,1.0,10.0,18.585227272727252)"><text id="ProcessOnText1024" fill="#000000" font-size="18" x="65.5" y="18.45" font-family="微软雅黑" font-weight="normal" font-style="normal" text-decoration="none" family="微软雅黑" text-anchor="middle" size="18">hash:</text></g></g><g id="ProcessOnG1025" transform="matrix(1.0,0.0,0.0,1.0,414.0,200.67045454545445)" opacity="1.0"><path id="ProcessOnPath1026" d="M0.0 0.0L387.0 0.0L387.0 59.67045454545457L0.0 59.67045454545457Z" stroke="#323232" stroke-width="2.0" stroke-dasharray="none" opacity="1.0" fill="#ffffff"/><g id="ProcessOnG1027" transform="matrix(1.0,0.0,0.0,1.0,10.0,19.835227272727284)"><text id="ProcessOnText1028" fill="#000000" font-size="16" x="182.5" y="16.4" font-family="微软雅黑" font-weight="normal" font-style="normal" text-decoration="none" family="微软雅黑" text-anchor="middle" size="16">this is the genesis block</text></g></g><g id="ProcessOnG1029" transform="matrix(1.0,0.0,0.0,1.0,414.0,260.340909090909)" opacity="1.0"><path id="ProcessOnPath1030" d="M0.0 0.0L387.0 0.0L387.0 59.67045454545457L0.0 59.67045454545457Z" stroke="#323232" stroke-width="2.0" stroke-dasharray="none" opacity="1.0" fill="#ff9999"/><g id="ProcessOnG1031" transform="matrix(1.0,0.0,0.0,1.0,10.0,9.835227272727284)"><text id="ProcessOnText1032" fill="#000000" font-size="16" x="182.5" y="16.4" font-family="微软雅黑" font-weight="normal" font-style="normal" text-decoration="none" family="微软雅黑" text-anchor="middle" size="16">bb8d6f67262cdda0872593280a5b0642a07a1196</text><text id="ProcessOnText1033" fill="#000000" font-size="16" x="182.5" y="36.4" font-family="微软雅黑" font-weight="normal" font-style="normal" text-decoration="none" family="微软雅黑" text-anchor="middle" size="16">bbcc3042379811cf25b8c9d1</text></g></g><g id="ProcessOnG1034" transform="matrix(1.0,0.0,0.0,1.0,414.0,352.0)" opacity="1.0"><path id="ProcessOnPath1035" d="M0.0 0.0L387.0 0.0L387.0 59.67045454545457L0.0 59.67045454545457Z" stroke="#323232" stroke-width="2.0" stroke-dasharray="none" opacity="1.0" fill="#ff9999"/><g id="ProcessOnG1036" transform="matrix(1.0,0.0,0.0,1.0,10.0,9.835227272727284)"><text id="ProcessOnText1037" fill="#000000" font-size="16" x="182.5" y="16.4" font-family="微软雅黑" font-weight="normal" font-style="normal" text-decoration="none" family="微软雅黑" text-anchor="middle" size="16">bb8d6f67262cdda0872593280a5b0642a07a1196</text><text id="ProcessOnText1038" fill="#000000" font-size="16" x="182.5" y="36.4" font-family="微软雅黑" font-weight="normal" font-style="normal" text-decoration="none" family="微软雅黑" text-anchor="middle" size="16">bbcc3042379811cf25b8c9d1</text></g></g><g id="ProcessOnG1039" transform="matrix(1.0,0.0,0.0,1.0,83.0,352.0)" opacity="1.0"><path id="ProcessOnPath1040" d="M0.0 0.0L178.0 0.0L178.0 178.01136363636357L0.0 178.01136363636357Z" stroke="#323232" stroke-width="2.0" stroke-dasharray="none" opacity="1.0" fill="#e5e5e5"/><g id="ProcessOnG1041" transform="matrix(1.0,0.0,0.0,1.0,10.0,77.75568181818178)"><text id="ProcessOnText1042" fill="#000000" font-size="18" x="78.0" y="18.45" font-family="微软雅黑" font-weight="normal" font-style="normal" text-decoration="none" family="微软雅黑" text-anchor="middle" size="18">block_1</text></g></g><g id="ProcessOnG1043" transform="matrix(1.0,0.0,0.0,1.0,261.0,352.0)" opacity="1.0"><path id="ProcessOnPath1044" d="M0.0 0.0L153.0 0.0L153.0 59.670454545454504L0.0 59.670454545454504Z" stroke="#323232" stroke-width="2.0" stroke-dasharray="none" opacity="1.0" fill="#ffffff"/><g id="ProcessOnG1045" transform="matrix(1.0,0.0,0.0,1.0,10.0,18.585227272727252)"><text id="ProcessOnText1046" fill="#000000" font-size="18" x="65.5" y="18.45" font-family="微软雅黑" font-weight="normal" font-style="normal" text-decoration="none" family="微软雅黑" text-anchor="middle" size="18">previous_hash</text></g></g><g id="ProcessOnG1047" transform="matrix(1.0,0.0,0.0,1.0,261.0,410.67045454545456)" opacity="1.0"><path id="ProcessOnPath1048" d="M0.0 0.0L153.0 0.0L153.0 59.670454545454504L0.0 59.670454545454504Z" stroke="#323232" stroke-width="2.0" stroke-dasharray="none" opacity="1.0" fill="#ffffff"/><g id="ProcessOnG1049" transform="matrix(1.0,0.0,0.0,1.0,10.0,18.585227272727252)"><text id="ProcessOnText1050" fill="#000000" font-size="18" x="65.5" y="18.45" font-family="微软雅黑" font-weight="normal" font-style="normal" text-decoration="none" family="微软雅黑" text-anchor="middle" size="18">data</text></g></g><g id="ProcessOnG1051" transform="matrix(1.0,0.0,0.0,1.0,261.0,470.340909090909)" opacity="1.0"><path id="ProcessOnPath1052" d="M0.0 0.0L153.0 0.0L153.0 59.670454545454504L0.0 59.670454545454504Z" stroke="#323232" stroke-width="2.0" stroke-dasharray="none" opacity="1.0" fill="#ffffff"/><g id="ProcessOnG1053" transform="matrix(1.0,0.0,0.0,1.0,10.0,18.585227272727252)"><text id="ProcessOnText1054" fill="#000000" font-size="18" x="65.5" y="18.45" font-family="微软雅黑" font-weight="normal" font-style="normal" text-decoration="none" family="微软雅黑" text-anchor="middle" size="18">hash:</text></g></g><g id="ProcessOnG1055" transform="matrix(1.0,0.0,0.0,1.0,414.0,410.67045454545445)" opacity="1.0"><path id="ProcessOnPath1056" d="M0.0 0.0L387.0 0.0L387.0 59.67045454545457L0.0 59.67045454545457Z" stroke="#323232" stroke-width="2.0" stroke-dasharray="none" opacity="1.0" fill="#ffffff"/><g id="ProcessOnG1057" transform="matrix(1.0,0.0,0.0,1.0,10.0,19.835227272727284)"><text id="ProcessOnText1058" fill="#000000" font-size="16" x="182.5" y="16.4" font-family="微软雅黑" font-weight="normal" font-style="normal" text-decoration="none" family="微软雅黑" text-anchor="middle" size="16">this is block 1</text></g></g><g id="ProcessOnG1059" transform="matrix(1.0,0.0,0.0,1.0,414.0,470.340909090909)" opacity="1.0"><path id="ProcessOnPath1060" d="M0.0 0.0L387.0 0.0L387.0 59.67045454545457L0.0 59.67045454545457Z" stroke="#323232" stroke-width="2.0" stroke-dasharray="none" opacity="1.0" fill="#ffb366"/><g id="ProcessOnG1061" transform="matrix(1.0,0.0,0.0,1.0,10.0,9.835227272727284)"><text id="ProcessOnText1062" fill="#000000" font-size="16" x="182.5" y="16.4" font-family="微软雅黑" font-weight="normal" font-style="normal" text-decoration="none" family="微软雅黑" text-anchor="middle" size="16">eef23e3fd8de411b5138dfc7c936f343fcb11cfce1</text><text id="ProcessOnText1063" fill="#000000" font-size="16" x="182.5" y="36.4" font-family="微软雅黑" font-weight="normal" font-style="normal" text-decoration="none" family="微软雅黑" text-anchor="middle" size="16">1757e6118b172a192307d5</text></g></g><g id="ProcessOnG1064" transform="matrix(1.0,0.0,0.0,1.0,414.0,561.0)" opacity="1.0"><path id="ProcessOnPath1065" d="M0.0 0.0L387.0 0.0L387.0 59.67045454545457L0.0 59.67045454545457Z" stroke="#323232" stroke-width="2.0" stroke-dasharray="none" opacity="1.0" fill="#ffb366"/><g id="ProcessOnG1066" transform="matrix(1.0,0.0,0.0,1.0,10.0,9.835227272727284)"><text id="ProcessOnText1067" fill="#000000" font-size="16" x="182.5" y="16.4" font-family="微软雅黑" font-weight="normal" font-style="normal" text-decoration="none" family="微软雅黑" text-anchor="middle" size="16">eef23e3fd8de411b5138dfc7c936f343fcb11cfce1</text><text id="ProcessOnText1068" fill="#000000" font-size="16" x="182.5" y="36.4" font-family="微软雅黑" font-weight="normal" font-style="normal" text-decoration="none" family="微软雅黑" text-anchor="middle" size="16">1757e6118b172a192307d5</text></g></g><g id="ProcessOnG1069" transform="matrix(1.0,0.0,0.0,1.0,83.0,561.0)" opacity="1.0"><path id="ProcessOnPath1070" d="M0.0 0.0L178.0 0.0L178.0 178.01136363636357L0.0 178.01136363636357Z" stroke="#323232" stroke-width="2.0" stroke-dasharray="none" opacity="1.0" fill="#e5e5e5"/><g id="ProcessOnG1071" transform="matrix(1.0,0.0,0.0,1.0,10.0,77.75568181818178)"><text id="ProcessOnText1072" fill="#000000" font-size="18" x="78.0" y="18.45" font-family="微软雅黑" font-weight="normal" font-style="normal" text-decoration="none" family="微软雅黑" text-anchor="middle" size="18">block_2</text></g></g><g id="ProcessOnG1073" transform="matrix(1.0,0.0,0.0,1.0,261.0,561.0)" opacity="1.0"><path id="ProcessOnPath1074" d="M0.0 0.0L153.0 0.0L153.0 59.670454545454504L0.0 59.670454545454504Z" stroke="#323232" stroke-width="2.0" stroke-dasharray="none" opacity="1.0" fill="#ffffff"/><g id="ProcessOnG1075" transform="matrix(1.0,0.0,0.0,1.0,10.0,18.585227272727252)"><text id="ProcessOnText1076" fill="#000000" font-size="18" x="65.5" y="18.45" font-family="微软雅黑" font-weight="normal" font-style="normal" text-decoration="none" family="微软雅黑" text-anchor="middle" size="18">previous_hash</text></g></g><g id="ProcessOnG1077" transform="matrix(1.0,0.0,0.0,1.0,261.0,619.6704545454545)" opacity="1.0"><path id="ProcessOnPath1078" d="M0.0 0.0L153.0 0.0L153.0 59.670454545454504L0.0 59.670454545454504Z" stroke="#323232" stroke-width="2.0" stroke-dasharray="none" opacity="1.0" fill="#ffffff"/><g id="ProcessOnG1079" transform="matrix(1.0,0.0,0.0,1.0,10.0,18.585227272727252)"><text id="ProcessOnText1080" fill="#000000" font-size="18" x="65.5" y="18.45" font-family="微软雅黑" font-weight="normal" font-style="normal" text-decoration="none" family="微软雅黑" text-anchor="middle" size="18">data</text></g></g><g id="ProcessOnG1081" transform="matrix(1.0,0.0,0.0,1.0,261.0,679.340909090909)" opacity="1.0"><path id="ProcessOnPath1082" d="M0.0 0.0L153.0 0.0L153.0 59.670454545454504L0.0 59.670454545454504Z" stroke="#323232" stroke-width="2.0" stroke-dasharray="none" opacity="1.0" fill="#ffffff"/><g id="ProcessOnG1083" transform="matrix(1.0,0.0,0.0,1.0,10.0,18.585227272727252)"><text id="ProcessOnText1084" fill="#000000" font-size="18" x="65.5" y="18.45" font-family="微软雅黑" font-weight="normal" font-style="normal" text-decoration="none" family="微软雅黑" text-anchor="middle" size="18">hash:</text></g></g><g id="ProcessOnG1085" transform="matrix(1.0,0.0,0.0,1.0,414.0,619.6704545454545)" opacity="1.0"><path id="ProcessOnPath1086" d="M0.0 0.0L387.0 0.0L387.0 59.67045454545457L0.0 59.67045454545457Z" stroke="#323232" stroke-width="2.0" stroke-dasharray="none" opacity="1.0" fill="#ffffff"/><g id="ProcessOnG1087" transform="matrix(1.0,0.0,0.0,1.0,10.0,19.835227272727284)"><text id="ProcessOnText1088" fill="#000000" font-size="16" x="182.5" y="16.4" font-family="微软雅黑" font-weight="normal" font-style="normal" text-decoration="none" family="微软雅黑" text-anchor="middle" size="16">this is block 2</text></g></g><g id="ProcessOnG1089" transform="matrix(1.0,0.0,0.0,1.0,414.0,679.340909090909)" opacity="1.0"><path id="ProcessOnPath1090" d="M0.0 0.0L387.0 0.0L387.0 59.67045454545457L0.0 59.67045454545457Z" stroke="#323232" stroke-width="2.0" stroke-dasharray="none" opacity="1.0" fill="#66b2ff"/><g id="ProcessOnG1091" transform="matrix(1.0,0.0,0.0,1.0,10.0,9.835227272727284)"><text id="ProcessOnText1092" fill="#000000" font-size="16" x="182.5" y="16.4" font-family="微软雅黑" font-weight="normal" font-style="normal" text-decoration="none" family="微软雅黑" text-anchor="middle" size="16">802631e0a0a6efcace29b7d826b64b9bc59a29ec</text><text id="ProcessOnText1093" fill="#000000" font-size="16" x="182.5" y="36.4" font-family="微软雅黑" font-weight="normal" font-style="normal" text-decoration="none" family="微软雅黑" text-anchor="middle" size="16">4b220afd562f1ccd66641961</text></g></g><g id="ProcessOnG1094"><path id="ProcessOnPath1095" d="M801.0 381.83522727272725L831.0 381.83522727272725L831.0 290.17613636363626L816.2360679774998 290.17613636363626" stroke="#323232" stroke-width="2.0" stroke-dasharray="none" fill="none" marker-end="url(#ProcessOnMarker1096)"/></g><g id="ProcessOnG1098"><path id="ProcessOnPath1099" d="M801.0 590.8352272727273L831.0 590.8352272727273L831.0 500.17613636363626L816.2360679774998 500.17613636363626" stroke="#323232" stroke-width="2.0" stroke-dasharray="none" fill="none" marker-end="url(#ProcessOnMarker1100)"/></g><g id="ProcessOnG1102" transform="matrix(1.0,0.0,0.0,1.0,414.0,768.0)" opacity="1.0"><path id="ProcessOnPath1103" d="M0.0 0.0L387.0 0.0L387.0 59.67045454545457L0.0 59.67045454545457Z" stroke="#323232" stroke-width="2.0" stroke-dasharray="none" opacity="1.0" fill="#66b2ff"/><g id="ProcessOnG1104" transform="matrix(1.0,0.0,0.0,1.0,10.0,9.835227272727284)"><text id="ProcessOnText1105" fill="#000000" font-size="16" x="182.5" y="16.4" font-family="微软雅黑" font-weight="normal" font-style="normal" text-decoration="none" family="微软雅黑" text-anchor="middle" size="16">802631e0a0a6efcace29b7d826b64b9bc59a29ec</text><text id="ProcessOnText1106" fill="#000000" font-size="16" x="182.5" y="36.4" font-family="微软雅黑" font-weight="normal" font-style="normal" text-decoration="none" family="微软雅黑" text-anchor="middle" size="16">4b220afd562f1ccd66641961</text></g></g><g id="ProcessOnG1107" transform="matrix(1.0,0.0,0.0,1.0,83.0,768.0)" opacity="1.0"><path id="ProcessOnPath1108" d="M0.0 0.0L178.0 0.0L178.0 178.01136363636357L0.0 178.01136363636357Z" stroke="#323232" stroke-width="2.0" stroke-dasharray="none" opacity="1.0" fill="#e5e5e5"/><g id="ProcessOnG1109" transform="matrix(1.0,0.0,0.0,1.0,10.0,77.75568181818178)"><text id="ProcessOnText1110" fill="#000000" font-size="18" x="78.0" y="18.45" font-family="微软雅黑" font-weight="normal" font-style="normal" text-decoration="none" family="微软雅黑" text-anchor="middle" size="18">block_3</text></g></g><g id="ProcessOnG1111" transform="matrix(1.0,0.0,0.0,1.0,261.0,768.0)" opacity="1.0"><path id="ProcessOnPath1112" d="M0.0 0.0L153.0 0.0L153.0 59.670454545454504L0.0 59.670454545454504Z" stroke="#323232" stroke-width="2.0" stroke-dasharray="none" opacity="1.0" fill="#ffffff"/><g id="ProcessOnG1113" transform="matrix(1.0,0.0,0.0,1.0,10.0,18.585227272727252)"><text id="ProcessOnText1114" fill="#000000" font-size="18" x="65.5" y="18.45" font-family="微软雅黑" font-weight="normal" font-style="normal" text-decoration="none" family="微软雅黑" text-anchor="middle" size="18">previous_hash</text></g></g><g id="ProcessOnG1115" transform="matrix(1.0,0.0,0.0,1.0,261.0,826.6704545454545)" opacity="1.0"><path id="ProcessOnPath1116" d="M0.0 0.0L153.0 0.0L153.0 59.670454545454504L0.0 59.670454545454504Z" stroke="#323232" stroke-width="2.0" stroke-dasharray="none" opacity="1.0" fill="#ffffff"/><g id="ProcessOnG1117" transform="matrix(1.0,0.0,0.0,1.0,10.0,18.585227272727252)"><text id="ProcessOnText1118" fill="#000000" font-size="18" x="65.5" y="18.45" font-family="微软雅黑" font-weight="normal" font-style="normal" text-decoration="none" family="微软雅黑" text-anchor="middle" size="18">data</text></g></g><g id="ProcessOnG1119" transform="matrix(1.0,0.0,0.0,1.0,261.0,886.340909090909)" opacity="1.0"><path id="ProcessOnPath1120" d="M0.0 0.0L153.0 0.0L153.0 59.670454545454504L0.0 59.670454545454504Z" stroke="#323232" stroke-width="2.0" stroke-dasharray="none" opacity="1.0" fill="#ffffff"/><g id="ProcessOnG1121" transform="matrix(1.0,0.0,0.0,1.0,10.0,18.585227272727252)"><text id="ProcessOnText1122" fill="#000000" font-size="18" x="65.5" y="18.45" font-family="微软雅黑" font-weight="normal" font-style="normal" text-decoration="none" family="微软雅黑" text-anchor="middle" size="18">hash:</text></g></g><g id="ProcessOnG1123" transform="matrix(1.0,0.0,0.0,1.0,414.0,826.6704545454545)" opacity="1.0"><path id="ProcessOnPath1124" d="M0.0 0.0L387.0 0.0L387.0 59.67045454545457L0.0 59.67045454545457Z" stroke="#323232" stroke-width="2.0" stroke-dasharray="none" opacity="1.0" fill="#ffffff"/><g id="ProcessOnG1125" transform="matrix(1.0,0.0,0.0,1.0,10.0,19.835227272727284)"><text id="ProcessOnText1126" fill="#000000" font-size="16" x="182.5" y="16.4" font-family="微软雅黑" font-weight="normal" font-style="normal" text-decoration="none" family="微软雅黑" text-anchor="middle" size="16">this is block 3</text></g></g><g id="ProcessOnG1127" transform="matrix(1.0,0.0,0.0,1.0,414.0,886.340909090909)" opacity="1.0"><path id="ProcessOnPath1128" d="M0.0 0.0L387.0 0.0L387.0 59.67045454545457L0.0 59.67045454545457Z" stroke="#323232" stroke-width="2.0" stroke-dasharray="none" opacity="1.0" fill="#b3ff66"/><g id="ProcessOnG1129" transform="matrix(1.0,0.0,0.0,1.0,10.0,9.835227272727284)"><text id="ProcessOnText1130" fill="#000000" font-size="16" x="182.5" y="16.4" font-family="微软雅黑" font-weight="normal" font-style="normal" text-decoration="none" family="微软雅黑" text-anchor="middle" size="16">ea4991a6b820214c68527d752b409d8a7a6e9cbd</text><text id="ProcessOnText1131" fill="#000000" font-size="16" x="182.5" y="36.4" font-family="微软雅黑" font-weight="normal" font-style="normal" text-decoration="none" family="微软雅黑" text-anchor="middle" size="16">837373d737903e0f4d988d80</text></g></g><g id="ProcessOnG1132"><path id="ProcessOnPath1133" d="M801.0 797.8352272727273L831.0 797.8352272727273L831.0 709.1761363636363L816.2360679774998 709.1761363636363" stroke="#323232" stroke-width="2.0" stroke-dasharray="none" fill="none" marker-end="url(#ProcessOnMarker1134)"/></g></g></g></svg>